<?xml version="1.0" encoding="utf-8"?>
<!-- Generator: Adobe Illustrator 23.0.6, SVG Export Plug-In . SVG Version: 6.00 Build 0)  -->
<svg version="1.1" id="Layer_1" xmlns:serif="http://www.serif.com/"
	 xmlns="http://www.w3.org/2000/svg" xmlns:xlink="http://www.w3.org/1999/xlink" x="0px" y="0px" viewBox="0 0 1920 1080"
	 style="enable-background:new 0 0 1920 1080;" xml:space="preserve">
<style type="text/css">
	.st0{fill:none;}
	.st1{fill-rule:evenodd;clip-rule:evenodd;fill:#FFFFFF;}
</style>
<rect id="Icons" x="420" y="-3240" class="st0" width="21600" height="13500"/>
<g id="Icons1" serif:id="Icons">
	<g id="Strike">
	</g>
	<g id="H1">
	</g>
	<g id="H2">
	</g>
	<g id="H3">
	</g>
	<g id="list-ul">
	</g>
	<g id="hamburger-1">
	</g>
	<g id="hamburger-2">
	</g>
	<g id="list-ol">
	</g>
	<g id="list-task">
	</g>
	<g id="trash">
	</g>
	<g id="vertical-menu">
	</g>
	<g id="horizontal-menu">
	</g>
	<g id="sidebar-2">
	</g>
	<g id="Pen">
	</g>
	<g id="Pen1" serif:id="Pen">
	</g>
	<g id="clock">
	</g>
	<g id="external-link">
	</g>
	<g id="hr">
	</g>
	<g id="info">
	</g>
	<g id="warning">
	</g>
	<g id="plus-circle">
	</g>
	<g id="minus-circle">
	</g>
	<g id="vue">
	</g>
	<g id="cog">
	</g>
	<path id="github" class="st1" d="M960.5,140.8C736.6,140.8,555,322.4,555,546.4c0,179.2,116.2,331.2,277.3,384.8
		c20.3,3.7,27.7-8.8,27.7-19.6c0-9.6-0.3-35.1-0.5-69c-112.8,24.5-136.6-54.4-136.6-54.4c-18.4-46.8-45-59.3-45-59.3
		c-36.8-25.2,2.8-24.7,2.8-24.7c40.7,2.9,62.1,41.8,62.1,41.8c36.2,62,94.9,44.1,118,33.7c3.7-26.2,14.1-44.1,25.8-54.2
		c-90-10.2-184.7-45-184.7-200.4c0-44.3,15.8-80.5,41.7-108.8c-4.2-10.3-18.1-51.5,4-107.3c0,0,34.1-10.9,111.5,41.6
		c32.3-9,67-13.5,101.5-13.7c34.4,0.2,69.1,4.7,101.5,13.7c77.4-52.5,111.4-41.6,111.4-41.6c22.1,55.8,8.2,97.1,4,107.3
		c26,28.4,41.7,64.6,41.7,108.8c0,155.8-94.8,190.1-185.2,200.1c14.6,12.5,27.5,37.3,27.5,75.1c0,54.2-0.5,97.9-0.5,111.2
		c0,10.9,7.3,23.5,27.9,19.5c161-53.7,277.1-205.6,277.1-384.8C1366.1,322.4,1184.5,140.8,960.5,140.8"/>
	<g id="logo">
	</g>
	<g id="eye-slash">
	</g>
	<g id="eye">
	</g>
	<g id="toggle-off">
	</g>
	<g id="shredder">
	</g>
	<g id="spinner--loading--dots-" serif:id="spinner [loading, dots]">
	</g>
	<g id="react">
	</g>
</g>
</svg>
