<?xml version="1.0" encoding="utf-8"?>
<!-- Generator: Adobe Illustrator 23.0.6, SVG Export Plug-In . SVG Version: 6.00 Build 0)  -->
<svg version="1.1" id="Capa_1" xmlns="http://www.w3.org/2000/svg" xmlns:xlink="http://www.w3.org/1999/xlink" x="0px" y="0px"
	 viewBox="0 0 478.2 478.2" style="enable-background:new 0 0 478.2 478.2;" xml:space="preserve">
<style type="text/css">
	.st0{fill:#FFFFFF;}
</style>
<g>
	<path id="LinkedIn__x28_alt_x29__3_" class="st0" d="M442.8,0H35.4C15.9,0,0,15.4,0,34.3V444c0,18.8,15.9,34.2,35.4,34.2h407.3
		c19.6,0,35.4-15.4,35.4-34.2V34.3C478.2,15.4,462.3,0,442.8,0z M145,400.2H72.8V184.4H145L145,400.2L145,400.2z M108.8,155h-0.5
		c-24.2,0-39.9-16.7-39.9-37.3c0-21.2,16.2-37.3,40.9-37.3c24.7,0,39.9,16.1,40.4,37.3C149.7,138.3,134,155,108.8,155z M405.4,400.2
		h-72.1V284.8c0-29-10.6-49-36.7-49c-20.1,0-31.8,13.4-37,26.5c-1.9,4.4-2.4,10.9-2.4,17.4v120.5h-72.3c0,0,0.9-195.6,0-215.8h72.3
		V215c9.5-14.7,26.7-35.7,65-35.7c47.6,0,83.2,30.9,83.2,97.2L405.4,400.2L405.4,400.2z M256.8,215.7c0.1-0.2,0.2-0.4,0.4-0.7v0.7
		H256.8L256.8,215.7z"/>
</g>
</svg>
