<?xml version="1.0" encoding="utf-8"?>
<!-- Generator: Adobe Illustrator 23.0.6, SVG Export Plug-In . SVG Version: 6.00 Build 0)  -->
<svg version="1.1" id="Layer_1" xmlns="http://www.w3.org/2000/svg" xmlns:xlink="http://www.w3.org/1999/xlink" x="0px" y="0px"
	 viewBox="0 0 96 96" style="enable-background:new 0 0 96 96;" xml:space="preserve">
<style type="text/css">
	.st0{fill:#FFFFFF;}
</style>
<path class="st0" d="M80,12H16C9.4,12,4,17.4,4,24v48c0,6.6,5.4,12,12,12h64c6.6,0,12-5.4,12-12V24C92,17.4,86.6,12,80,12z M80,20
	c0.5,0,0.9,0.1,1.3,0.2L48,46.9L14.7,20.2c0.4-0.1,0.9-0.2,1.3-0.2H80z M80,76H16c-2.2,0-4-1.8-4-4V28.3l33.5,26.8
	c0.7,0.6,1.6,0.9,2.5,0.9s1.8-0.3,2.5-0.9L84,28.3V72C84,74.2,82.2,76,80,76z"/>
</svg>
