<?xml version="1.0" encoding="utf-8"?>
<!-- Generator: Adobe Illustrator 23.0.6, SVG Export Plug-In . SVG Version: 6.00 Build 0)  -->
<svg version="1.1" id="mdi-steam" xmlns="http://www.w3.org/2000/svg" xmlns:xlink="http://www.w3.org/1999/xlink" x="0px" y="0px"
	 viewBox="0 0 24 24" style="enable-background:new 0 0 24 24;" xml:space="preserve">
<style type="text/css">
	.st0{fill:#FFFFFF;}
</style>
<path class="st0" d="M12,2c5.5,0,10,4.5,10,10s-4.5,10-10,10c-4.6,0-8.4-3.1-9.6-7.3l3.8,1.6c0.3,1.3,1.4,2.3,2.8,2.3
	c1.6,0,2.8-1.3,2.8-2.8v-0.1l3.4-2.4h0.1c2.1,0,3.8-1.7,3.8-3.8s-1.7-3.8-3.8-3.8s-3.8,1.7-3.8,3.8v0.1l-2.4,3.5l-0.2,0
	c-0.6,0-1.1,0.2-1.6,0.5L2,11.2C2.4,6.1,6.7,2,12,2 M8.3,17.2c0.8,0.3,1.7,0,2.1-0.8c0.3-0.8-0.1-1.7-0.8-2l-1.3-0.5
	c0.5-0.2,1-0.2,1.6,0c0.5,0.2,0.9,0.6,1.2,1.1c0.2,0.5,0.2,1.1,0,1.6c-0.4,1.1-1.7,1.6-2.8,1.1c-0.5-0.2-0.9-0.6-1.1-1L8.3,17.2
	 M17.8,9.4c0,1.4-1.1,2.5-2.5,2.5c-1.4,0-2.5-1.1-2.5-2.5c0-1.4,1.1-2.5,2.5-2.5c0,0,0,0,0,0C16.7,6.9,17.8,8,17.8,9.4 M13.4,9.4
	c0,1,0.8,1.9,1.9,1.9c1,0,1.9-0.9,1.9-1.9s-0.8-1.9-1.9-1.9C14.2,7.5,13.4,8.4,13.4,9.4z"/>
</svg>
