<?xml version="1.0" encoding="utf-8"?>
<!-- Generator: Adobe Illustrator 23.0.6, SVG Export Plug-In . SVG Version: 6.00 Build 0)  -->
<svg version="1.1" id="Layer_1" xmlns="http://www.w3.org/2000/svg" xmlns:xlink="http://www.w3.org/1999/xlink" x="0px" y="0px"
	 viewBox="0 0 512 512" style="enable-background:new 0 0 512 512;" xml:space="preserve">
<style type="text/css">
	.st0{fill:#FFFFFF;}
</style>
<g id="_x32_4-twitter_x2C__tweet">
	<g>
		<g>
			<path class="st0" d="M494.6,107.6c-17.7,7.8-36.7,13-56.4,15.5c20.3-12.1,35.8-31.2,43-54.2c-18.9,11.3-39.8,19.3-62,23.7
				c-18-19.2-43.5-31-71.5-31c-54.2,0-97.8,44.1-97.8,98.1c0,7.8,0.7,15.2,2.3,22.4C170.9,178.1,99,139,50.6,79.5
				c-8.4,14.7-13.4,31.5-13.4,49.6c0,34,17.4,64.1,43.5,81.5c-15.7-0.3-31.1-4.9-44.2-12.1v1.1c0,47.7,33.9,87.3,78.4,96.4
				c-8,2.2-16.6,3.2-25.6,3.2c-6.3,0-12.6-0.4-18.5-1.7c12.7,38.9,48.6,67.4,91.4,68.3c-33.3,26.1-75.5,41.8-121.3,41.8
				c-8,0-15.7-0.4-23.4-1.3c43.3,28,94.7,44,150.1,44c180,0,278.4-149.5,278.4-279.1c0-4.3-0.2-8.5-0.4-12.7
				C465,144.8,481.3,127.5,494.6,107.6L494.6,107.6z"/>
		</g>
	</g>
</g>
</svg>
