<?xml version="1.0" encoding="utf-8"?>
<!-- Generator: Adobe Illustrator 23.0.6, SVG Export Plug-In . SVG Version: 6.00 Build 0)  -->
<svg version="1.1" id="Layer_1" xmlns="http://www.w3.org/2000/svg" xmlns:xlink="http://www.w3.org/1999/xlink" x="0px" y="0px"
	 viewBox="0 0 32 32" style="enable-background:new 0 0 32 32;" xml:space="preserve">
<style type="text/css">
	.st0{fill:#FFFFFF;}
</style>
<path class="st0" d="M24.8,17.5c-1.5,0-2.8-0.6-4.1-1.6l0.3-1.4l0-0.1c0.3-1.5,1.1-4.1,3.8-4.1c2,0,3.6,1.6,3.6,3.6
	C28.4,15.9,26.7,17.5,24.8,17.5L24.8,17.5z M24.8,6.7c-3.4,0-6,2.2-7.1,5.8c-1.6-2.4-2.9-5.4-3.6-7.9h-3.6v9.5
	c0,1.9-1.5,3.4-3.4,3.4c-1.9,0-3.4-1.5-3.4-3.4V4.7H0v9.5c0,3.9,3.2,7.1,7,7.1c3.9,0,7-3.2,7-7.1v-1.6c0.7,1.5,1.6,3,2.6,4.3
	l-2.2,10.5h3.7l1.6-7.6c1.4,0.9,3,1.5,4.9,1.5c4,0,7.2-3.3,7.2-7.3C32,9.9,28.8,6.7,24.8,6.7L24.8,6.7z"/>
</svg>
