<?xml version="1.0" encoding="utf-8"?>
<!-- Generator: Adobe Illustrator 23.0.6, SVG Export Plug-In . SVG Version: 6.00 Build 0)  -->
<svg version="1.1" id="Layer_1" xmlns="http://www.w3.org/2000/svg" xmlns:xlink="http://www.w3.org/1999/xlink" x="0px" y="0px"
	 viewBox="0 0 1024 1024" style="enable-background:new 0 0 1024 1024;" xml:space="preserve">
<style type="text/css">
	.st0{fill-rule:evenodd;clip-rule:evenodd;fill:#FFFFFF;}
</style>
<g>
	<path class="st0" d="M345.1,578c-30.7,23.4-60.7,46.2-90.7,69.1c-60,45.8-120.1,91.4-179.8,137.4c-7.9,6.1-14.3,6.8-22.9,1.8
		c-12.3-7.2-25.3-13.2-38-19.6C6.9,763.3,4,758,4,750.3c0.1-158.9,0-317.7,0.5-476.6c0-5.2,4.5-12.4,9.1-15.2
		c13.6-8.3,28.2-14.8,42.4-22.2c7.7-4,13.5-0.6,19.5,4c49.4,37.8,98.8,75.5,148.2,113.3c40.5,30.9,81,61.8,122,93.1
		c3-2.8,5.7-5.3,8.4-7.8c147.8-144,295.7-288,443.3-432.2c7.5-7.3,14.1-8.3,23.6-4.5c62.5,25.4,125.3,50.2,187.8,75.9
		c4.6,1.9,7.9,8.3,10.5,13.3c1.5,3,0.4,7.3,0.4,11.1c0,273.1,0,546.3,0,819.5c0,20.3,0,20.2-19.4,28
		c-59.5,23.8-119.2,47.4-178.5,71.7c-10.4,4.3-17.2,2.9-25.1-4.9c-146.3-142.6-292.9-285-439.4-427.5
		C353.6,585.7,349.8,582.3,345.1,578z M771.2,707.6c0-131.2,0-260.1,0-390.6c-87.4,65.4-173.3,129.7-260.1,194.6
		C598.2,577.2,684.1,641.9,771.2,707.6z M225.7,511.7c-43.7-39-86.3-77.1-129.7-115.8c0,78.7,0,155.3,0,233.5
		C139.8,589.6,182.3,551.1,225.7,511.7z"/>
</g>
</svg>
