<?xml version="1.0" encoding="utf-8"?>
<!-- Generator: Adobe Illustrator 23.0.6, SVG Export Plug-In . SVG Version: 6.00 Build 0)  -->
<svg version="1.1" id="Layer_1" xmlns:serif="http://www.serif.com/"
	 xmlns="http://www.w3.org/2000/svg" xmlns:xlink="http://www.w3.org/1999/xlink" x="0px" y="0px" viewBox="0 0 1920 1080"
	 style="enable-background:new 0 0 1920 1080;" xml:space="preserve">
<style type="text/css">
	.st0{fill:none;}
	.st1{fill-rule:evenodd;clip-rule:evenodd;fill:#FFFFFF;}
</style>
<rect id="Artboard15" x="420" class="st0" width="1080" height="1080"/>
<path class="st1" d="M1405.8,408.4c-5.6-87.3-73.3-157.9-160.3-167.2c-90.2-9.1-186.1-14-285.5-14s-195.3,4.9-285.5,14
	c-87,9.3-154.7,79.9-160.3,167.2v0c-2.7,43-4.2,87-4.2,131.6s1.4,88.6,4.2,131.6c5.6,87.3,73.3,157.9,160.3,167.2
	c90.2,9.1,186.1,14,285.5,14s195.3-4.9,285.5-14c87-9.3,154.7-79.9,160.3-167.2c2.7-43,4.2-87,4.2-131.6
	C1410,495.4,1408.6,451.4,1405.8,408.4z M876.6,674.8V405.2L1097.5,540L876.6,674.8z"/>
</svg>
